<?xml version="1.0" encoding="utf-8"?>
<svg version="1.1" xmlns:xlink="http://www.w3.org/1999/xlink" width="8px" height="5px" xmlns="http://www.w3.org/2000/svg">
  <g transform="matrix(1 0 0 1 -132 -13 )">
    <path d="M 0.218598848119807 1.4432509621225  C -0.0634812333860365 1.13588666651927  -0.0821026568595297 0.582925062946006  0.218598848119807 0.255707092746403  C 0.51930035309914 -0.0722461987345523  0.937937540077251 -0.0979824435817092  1.30553823309098 0.255707092746403  L 4.00081686029107 3.01095593395521  L 6.69609548749116 0.255707092746403  C 7.06369618050489 -0.0979824435817092  7.48302304983387 -0.0722461987345523  7.7816555077606 0.255707092746403  C 8.08235701273993 0.582925062946006  8.06304590691557 1.13588666651927  7.7816555077606 1.4432509621225  C 7.50164447330736 1.75061525772572  4.54359687042579 4.75366737074861  4.54359687042579 4.75366737074861  C 4.39393580028699 4.91764401648909  4.19737633028903 5  4.00081686029107 5  C 3.80425739029311 5  3.60769792029515 4.91764401648909  3.45665748545461 4.75366737074861  C 3.45665748545461 4.75366737074861  0.499989247274779 1.75061525772572  0.218598848119807 1.4432509621225  Z " fill-rule="nonzero" fill="#333333" stroke="none" transform="matrix(1 0 0 1 132 13 )" />
  </g>
</svg>