<?xml version="1.0" encoding="utf-8"?>
<svg version="1.1" xmlns:xlink="http://www.w3.org/1999/xlink" width="16px" height="14px" xmlns="http://www.w3.org/2000/svg">
  <g transform="matrix(1 0 0 1 -10 -8 )">
    <path d="M 16 7.00000000000002  C 16 6.22580000000001  15.9451428571429 5.6  15.3142857142857 5.6  L 0.685714285714283 5.6  C 0.0548571428571449 5.6  0 6.22580000000001  0 7.00000000000002  C 0 7.77419999999999  0.0548571428571449 8.40000000000001  0.685714285714283 8.40000000000001  L 15.3142857142857 8.40000000000001  C 15.9451428571429 8.40000000000001  16 7.77419999999999  16 7.00000000000002  Z M 16 12.6  C 16 11.8258  15.9451428571429 11.2  15.3142857142857 11  L 0.685714285714283 11  C 0.0548571428571449 11.2  0 11.8258  0 12.6  C 0 13.3742  0.0548571428571449 14  0.685714285714283 14  L 15.3142857142857 14  C 15.9451428571429 14  16 13.3742  16 12.6  Z M 0 1.4  C 0 2.1742  0.0548571428571449 2.79999999999999  0.685714285714283 3  L 15.3142857142857 3  C 15.9451428571429 2.79999999999999  16 2.1742  16 1.4  C 16 0.625800000000007  15.9451428571429 0  15.3142857142857 0  L 0.685714285714283 0  C 0.0548571428571449 0  0 0.625800000000007  0 1.4  Z " fill-rule="nonzero" fill="#555555" stroke="none" transform="matrix(1 0 0 1 10 8 )" />
  </g>
</svg>