<?xml version="1.0" encoding="utf-8"?>
<svg version="1.1" xmlns:xlink="http://www.w3.org/1999/xlink" width="14px" height="14px" viewBox="135 143.5  14 14" xmlns="http://www.w3.org/2000/svg">
  <path d="M 142 143.5  C 145.92 143.5  149 146.58  149 150.5  C 149 154.42  145.92 157.5  142 157.5  C 138.08 157.5  135 154.42  135 150.5  C 135 146.58  138.08 143.5  142 143.5  Z " fill-rule="nonzero" fill="#ffffff" stroke="none" />
  <path d="M 142 144  C 145.64 144  148.5 146.86  148.5 150.5  C 148.5 154.14  145.64 157  142 157  C 138.36 157  135.5 154.14  135.5 150.5  C 135.5 146.86  138.36 144  142 144  Z " stroke-width="1" stroke="#797979" fill="none" />
  <path d="M 142 154  C 140.04 154  138.5 152.46  138.5 150.5  C 138.5 148.54  140.04 147  142 147  C 143.96 147  145.5 148.54  145.5 150.5  C 145.5 152.46  143.96 154  142 154  " fill-rule="nonzero" fill="#797979" stroke="none" />
</svg>