<?xml version="1.0" encoding="utf-8"?>
<svg version="1.1" xmlns:xlink="http://www.w3.org/1999/xlink" width="9px" height="5px" xmlns="http://www.w3.org/2000/svg">
  <g transform="matrix(1 0 0 1 -228 -189 )">
    <path d="M 9 1.10869565217391  C 9 1.19404186795491  8.96464019851117 1.26731078904992  8.8939205955335 1.32850241545894  L 4.75124069478908 4.90821256038647  C 4.68052109181142 4.96940418679549  4.59677419354839 5  4.5 5  C 4.40322580645161 5  4.31947890818859 4.96940418679549  4.24875930521092 4.90821256038647  L 0.106079404466501 1.32850241545894  C 0.0353598014888338 1.26731078904992  0 1.19404186795491  0 1.10869565217391  C 0 1.02334943639291  0.0353598014888338 0.950080515297906  0.106079404466501 0.888888888888889  L 1.03287841191067 0.0917874396135265  C 1.10359801488834 0.0305958132045087  1.18734491315136 0  1.28411910669975 0  C 1.38089330024814 0  1.46464019851117 0.0305958132045087  1.53535980148883 0.0917874396135265  L 4.5 2.65700483091787  L 7.46464019851117 0.0917874396135265  C 7.53535980148884 0.0305958132045087  7.61910669975186 0  7.71588089330025 0  C 7.81265508684864 0  7.89640198511166 0.0305958132045087  7.96712158808933 0.0917874396135265  L 8.8939205955335 0.888888888888889  C 8.96464019851117 0.950080515297906  9 1.02334943639291  9 1.10869565217391  Z " fill-rule="nonzero" fill="#0854a1" stroke="none" transform="matrix(1 0 0 1 228 189 )" />
  </g>
</svg>