<?xml version="1.0" encoding="utf-8"?>
<svg version="1.1" xmlns:xlink="http://www.w3.org/1999/xlink" width="14px" height="14px" viewBox="37 661  14 14" xmlns="http://www.w3.org/2000/svg">
  <path d="M 37.5 664  A 2.5 2.5 0 0 1 40 661.5 L 48 661.5  A 2.5 2.5 0 0 1 50.5 664 L 50.5 672  A 2.5 2.5 0 0 1 48 674.5 L 40 674.5  A 2.5 2.5 0 0 1 37.5 672 L 37.5 664  Z " fill-rule="nonzero" fill="#ffffff" stroke="none" />
  <path d="M 37.5 664  A 2.5 2.5 0 0 1 40 661.5 L 48 661.5  A 2.5 2.5 0 0 1 50.5 664 L 50.5 672  A 2.5 2.5 0 0 1 48 674.5 L 40 674.5  A 2.5 2.5 0 0 1 37.5 672 L 37.5 664  Z " stroke-width="1" stroke="#797979" fill="none" />
</svg>