<?xml version="1.0" encoding="utf-8"?>
<svg version="1.1" xmlns:xlink="http://www.w3.org/1999/xlink" width="14px" height="14px" viewBox="37 971  14 14" xmlns="http://www.w3.org/2000/svg">
  <path d="M 37.5 974  A 2.5 2.5 0 0 1 40 971.5 L 48 971.5  A 2.5 2.5 0 0 1 50.5 974 L 50.5 982  A 2.5 2.5 0 0 1 48 984.5 L 40 984.5  A 2.5 2.5 0 0 1 37.5 982 L 37.5 974  Z " fill-rule="nonzero" fill="#f0f0f0" stroke="none" />
  <path d="M 37.5 974  A 2.5 2.5 0 0 1 40 971.5 L 48 971.5  A 2.5 2.5 0 0 1 50.5 974 L 50.5 982  A 2.5 2.5 0 0 1 48 984.5 L 40 984.5  A 2.5 2.5 0 0 1 37.5 982 L 37.5 974  Z " stroke-width="1" stroke="#797979" fill="none" />
  <path d="M 40 978  L 43 981  L 48 974  " stroke-width="3" stroke="#797979" fill="none" />
</svg>