<?xml version="1.0" encoding="utf-8"?>
<svg version="1.1" xmlns:xlink="http://www.w3.org/1999/xlink" width="14px" height="14px" viewBox="37 231  14 14" xmlns="http://www.w3.org/2000/svg">
  <path d="M 44 231  C 47.92 231  51 234.08  51 238  C 51 241.92  47.92 245  44 245  C 40.08 245  37 241.92  37 238  C 37 234.08  40.08 231  44 231  Z " fill-rule="nonzero" fill="#ffffff" stroke="none" />
  <path d="M 44 231.5  C 47.64 231.5  50.5 234.36  50.5 238  C 50.5 241.64  47.64 244.5  44 244.5  C 40.36 244.5  37.5 241.64  37.5 238  C 37.5 234.36  40.36 231.5  44 231.5  Z " stroke-width="1" stroke="#797979" fill="none" />
  <path d="M 44 241.5  C 42.04 241.5  40.5 239.96  40.5 238  C 40.5 236.04  42.04 234.5  44 234.5  C 45.96 234.5  47.5 236.04  47.5 238  C 47.5 239.96  45.96 241.5  44 241.5  " fill-rule="nonzero" fill="#797979" stroke="none" />
</svg>