<?xml version="1.0" encoding="utf-8"?>
<svg version="1.1" xmlns:xlink="http://www.w3.org/1999/xlink" width="14px" height="14px" viewBox="37 1221  14 14" xmlns="http://www.w3.org/2000/svg">
  <path d="M 44 1221  C 47.92 1221  51 1224.08  51 1228  C 51 1231.92  47.92 1235  44 1235  C 40.08 1235  37 1231.92  37 1228  C 37 1224.08  40.08 1221  44 1221  Z " fill-rule="nonzero" fill="#f0f0f0" stroke="none" />
  <path d="M 44 1221.5  C 47.64 1221.5  50.5 1224.36  50.5 1228  C 50.5 1231.64  47.64 1234.5  44 1234.5  C 40.36 1234.5  37.5 1231.64  37.5 1228  C 37.5 1224.36  40.36 1221.5  44 1221.5  Z " stroke-width="1" stroke="#797979" fill="none" />
  <path d="M 44 1231.5  C 42.04 1231.5  40.5 1229.96  40.5 1228  C 40.5 1226.04  42.04 1224.5  44 1224.5  C 45.96 1224.5  47.5 1226.04  47.5 1228  C 47.5 1229.96  45.96 1231.5  44 1231.5  " fill-rule="nonzero" fill="#797979" stroke="none" />
</svg>