<?xml version="1.0" encoding="utf-8"?>
<svg version="1.1" xmlns:xlink="http://www.w3.org/1999/xlink" width="14px" height="14px" viewBox="37 661  14 14" xmlns="http://www.w3.org/2000/svg">
  <path d="M 44 661  C 47.92 661  51 664.08  51 668  C 51 671.92  47.92 675  44 675  C 40.08 675  37 671.92  37 668  C 37 664.08  40.08 661  44 661  Z " fill-rule="nonzero" fill="#f0f0f0" stroke="none" />
  <path d="M 44 661.5  C 47.64 661.5  50.5 664.36  50.5 668  C 50.5 671.64  47.64 674.5  44 674.5  C 40.36 674.5  37.5 671.64  37.5 668  C 37.5 664.36  40.36 661.5  44 661.5  Z " stroke-width="1" stroke="#797979" fill="none" />
  <path d="M 44 671.5  C 42.04 671.5  40.5 669.96  40.5 668  C 40.5 666.04  42.04 664.5  44 664.5  C 45.96 664.5  47.5 666.04  47.5 668  C 47.5 669.96  45.96 671.5  44 671.5  " fill-rule="nonzero" fill="#797979" stroke="none" />
</svg>