<?xml version="1.0" encoding="utf-8"?>
<svg version="1.1" xmlns:xlink="http://www.w3.org/1999/xlink" width="14px" height="14px" viewBox="15 4  14 14" xmlns="http://www.w3.org/2000/svg">
  <path d="M 15.5 6  A 1.5 1.5 0 0 1 17 4.5 L 27 4.5  A 1.5 1.5 0 0 1 28.5 6 L 28.5 16  A 1.5 1.5 0 0 1 27 17.5 L 17 17.5  A 1.5 1.5 0 0 1 15.5 16 L 15.5 6  Z " fill-rule="nonzero" fill="#ffffff" stroke="none" />
  <path d="M 15.5 6  A 1.5 1.5 0 0 1 17 4.5 L 27 4.5  A 1.5 1.5 0 0 1 28.5 6 L 28.5 16  A 1.5 1.5 0 0 1 27 17.5 L 17 17.5  A 1.5 1.5 0 0 1 15.5 16 L 15.5 6  Z " stroke-width="1" stroke="#797979" fill="none" />
  <path d="M 18 11  L 21 14  L 26 7  " stroke-width="3" stroke="#797979" fill="none" />
</svg>