<?xml version="1.0" encoding="utf-8"?>
<svg version="1.1" xmlns:xlink="http://www.w3.org/1999/xlink" width="14px" height="14px" xmlns="http://www.w3.org/2000/svg">
  <g transform="matrix(1 0 0 1 -954 -858 )">
    <path d="M 7.7 12.8333333333333  C 7.7 13.216  7.38266666666667 13.5333333333333  7 13.5333333333333  C 6.61733333333333 13.5333333333333  6.3 13.216  6.3 12.8333333333333  L 6.3 7.7  L 1.16666666666667 7.7  C 0.784 7.7  0.466666666666667 7.38266666666667  0.466666666666667 7  C 0.466666666666667 6.61733333333333  0.784 6.3  1.16666666666667 6.3  L 6.3 6.3  L 6.3 1.16666666666667  C 6.3 0.784  6.61733333333333 0.466666666666667  7 0.466666666666667  C 7.38266666666667 0.466666666666667  7.7 0.784  7.7 1.16666666666667  L 7.7 6.3  L 12.8333333333333 6.3  C 13.216 6.3  13.5333333333333 6.61733333333333  13.5333333333333 7  C 13.5333333333333 7.38266666666667  13.216 7.7  12.8333333333333 7.7  L 7.7 7.7  L 7.7 12.8333333333333  Z " fill-rule="nonzero" fill="#ffffff" stroke="none" transform="matrix(1 0 0 1 954 858 )" />
  </g>
</svg>