<?xml version="1.0" encoding="utf-8"?>
<svg version="1.1" xmlns:xlink="http://www.w3.org/1999/xlink" width="14px" height="14px" viewBox="15 5  14 14" xmlns="http://www.w3.org/2000/svg">
  <path d="M 15.5 7  A 1.5 1.5 0 0 1 17 5.5 L 27 5.5  A 1.5 1.5 0 0 1 28.5 7 L 28.5 17  A 1.5 1.5 0 0 1 27 18.5 L 17 18.5  A 1.5 1.5 0 0 1 15.5 17 L 15.5 7  Z " fill-rule="nonzero" fill="#ffffff" stroke="none" />
  <path d="M 15.5 7  A 1.5 1.5 0 0 1 17 5.5 L 27 5.5  A 1.5 1.5 0 0 1 28.5 7 L 28.5 17  A 1.5 1.5 0 0 1 27 18.5 L 17 18.5  A 1.5 1.5 0 0 1 15.5 17 L 15.5 7  Z " stroke-width="1" stroke="#797979" fill="none" />
</svg>