<?xml version="1.0" encoding="utf-8"?>
<svg version="1.1" xmlns:xlink="http://www.w3.org/1999/xlink" width="12px" height="12px" xmlns="http://www.w3.org/2000/svg">
  <g transform="matrix(1 0 0 1 -1010 -216 )">
    <path d="M 1.65784615384616 11.8412307692308  C 1.52492307692308 11.8855384615385  1.392 11.9076923076923  1.25907692307692 11.9076923076923  C 0.882461538461538 11.9076923076923  0.528 11.7230769230769  0.306461538461538 11.4203076923077  C 0.166153846153846 11.2209230769231  0.0923076923076922 10.9846153846154  0.0923076923076922 10.7409230769231  C 0.0923076923076922 10.608  0.114461538461538 10.4750769230769  0.158769230769231 10.3421538461538  L 1.19261538461538 7.32923076923077  C 1.26646153846154 7.12984615384615  1.34769230769231 6.99692307692308  1.49538461538462 6.84923076923077  L 7.71323076923077 0.631384615384616  C 8.06030769230769 0.284307692307693  8.51815384615385 0.0923076923076924  9.01292307692308 0.0923076923076924  C 9.50769230769231 0.0923076923076924  9.97292307692308 0.284307692307692  10.3273846153846 0.638769230769231  L 11.3612307692308 1.67261538461538  C 11.7230769230769 2.03446153846154  11.9076923076923 2.51446153846154  11.9076923076923 2.98707692307692  C 11.9076923076923 3.45969230769231  11.7230769230769 3.93230769230769  11.3686153846154 4.28676923076923  L 5.14338461538462 10.512  C 4.99569230769231 10.6596923076923  4.86276923076923 10.7409230769231  4.66338461538462 10.8147692307692  L 1.65784615384616 11.8412307692308  Z M 7.77969230769231 2.13046153846154  L 9.86215384615384 4.22030769230769  L 10.5784615384615 3.504  C 10.7261538461538 3.35630769230769  10.7926153846154 3.17169230769231  10.7926153846154 2.97969230769231  C 10.7926153846154 2.78769230769231  10.7261538461538 2.59569230769231  10.5784615384615 2.45538461538462  L 9.54461538461538 1.42153846153846  C 9.38953846153846 1.27384615384615  9.20492307692308 1.2  9.01292307692308 1.2  C 8.82092307692308 1.2  8.63630769230769 1.27384615384615  8.496 1.41415384615385  L 7.77969230769231 2.13046153846154  Z M 3.15692307692308 7.01169230769231  L 4.98092307692308 8.84307692307692  C 5.06215384615385 8.92430769230769  5.15815384615385 8.92430769230769  5.23938461538462 8.84307692307692  L 9.07938461538462 5.00307692307692  L 6.99692307692308 2.91323076923077  L 3.15692307692308 6.75323076923077  C 3.07569230769231 6.83446153846154  3.07569230769231 6.93046153846154  3.15692307692308 7.01169230769231  Z M 1.25907692307692 10.5636923076923  C 1.20738461538462 10.7113846153846  1.28861538461538 10.7926153846154  1.43630769230769 10.7409230769231  L 4.09476923076923 9.83261538461538  C 4.22769230769231 9.78092307692308  4.24984615384615 9.67753846153846  4.15384615384615 9.58153846153846  L 2.41846153846154 7.83876923076923  C 2.32246153846154 7.74276923076923  2.21907692307692 7.76492307692308  2.16738461538462 7.89784615384615  L 1.25907692307692 10.5636923076923  Z " fill-rule="nonzero" fill="#333333" stroke="none" transform="matrix(1 0 0 1 1010 216 )" />
  </g>
</svg>