<?xml version="1.0" encoding="utf-8"?>
<svg version="1.1" xmlns:xlink="http://www.w3.org/1999/xlink" width="12px" height="11px" xmlns="http://www.w3.org/2000/svg">
  <g transform="matrix(1 0 0 1 -1010 -55 )">
    <path d="M 11.04 1.65  L 0.96 1.65  C 0.5664 1.65  0.24 1.276  0.24 0.825000000000001  C 0.24 0.374000000000002  0.566399999999999 0  0.96 0  L 11.04 0  C 11.4336 0  11.76 0.374000000000002  11.76 0.825000000000001  C 11.76 1.276  11.4336 1.65  11.04 1.65  Z M 11.04 6  L 0.96 6  C 0.5664 6.05  0.24 5.676  0.24 5.225  C 0.24 4.774  0.566399999999999 4.4  0.96 4.4  L 11.04 4.4  C 11.4336 4.4  11.76 4.774  11.76 5.225  C 11.76 5.676  11.4336 6.05  11.04 6  Z M 7.2 10.45  L 0.96 10.45  C 0.5664 10.45  0.24 10.076  0.24 9.625  C 0.24 9.174  0.566399999999999 8.8  0.96 8.8  L 7.2 8.8  C 7.5936 8.8  7.92 9.174  7.92 9.625  C 7.92 10.076  7.5936 10.45  7.2 10.45  Z " fill-rule="nonzero" fill="#333333" stroke="none" transform="matrix(1 0 0 1 1010 55 )" />
  </g>
</svg>