<?xml version="1.0" encoding="utf-8"?>
<svg version="1.1" xmlns:xlink="http://www.w3.org/1999/xlink" width="14px" height="14px" viewBox="40 8  14 14" xmlns="http://www.w3.org/2000/svg">
  <path d="M 40.5 11  A 2.5 2.5 0 0 1 43 8.5 L 51 8.5  A 2.5 2.5 0 0 1 53.5 11 L 53.5 19  A 2.5 2.5 0 0 1 51 21.5 L 43 21.5  A 2.5 2.5 0 0 1 40.5 19 L 40.5 11  Z " fill-rule="nonzero" fill="#f0f0f0" stroke="none" />
  <path d="M 40.5 11  A 2.5 2.5 0 0 1 43 8.5 L 51 8.5  A 2.5 2.5 0 0 1 53.5 11 L 53.5 19  A 2.5 2.5 0 0 1 51 21.5 L 43 21.5  A 2.5 2.5 0 0 1 40.5 19 L 40.5 11  Z " stroke-width="1" stroke="#797979" fill="none" />
  <path d="M 43 15  L 46 18  L 51 11  " stroke-width="3" stroke="#797979" fill="none" />
</svg>