<?xml version="1.0" encoding="utf-8"?>
<svg version="1.1" xmlns:xlink="http://www.w3.org/1999/xlink" width="14px" height="14px" viewBox="0 70  14 14" xmlns="http://www.w3.org/2000/svg">
  <path d="M 7 70  C 10.92 70  14 73.08  14 77  C 14 80.92  10.92 84  7 84  C 3.08 84  0 80.92  0 77  C 0 73.08  3.08 70  7 70  Z " fill-rule="nonzero" fill="#ffffff" stroke="none" />
  <path d="M 7 70.5  C 10.64 70.5  13.5 73.36  13.5 77  C 13.5 80.64  10.64 83.5  7 83.5  C 3.36 83.5  0.5 80.64  0.5 77  C 0.5 73.36  3.36 70.5  7 70.5  Z " stroke-width="1" stroke="#797979" fill="none" />
  <path d="M 7 80.5  C 5.04 80.5  3.5 78.96  3.5 77  C 3.5 75.04  5.04 73.5  7 73.5  C 8.96 73.5  10.5 75.04  10.5 77  C 10.5 78.96  8.96 80.5  7 80.5  " fill-rule="nonzero" fill="#797979" stroke="none" />
</svg>