<?xml version="1.0" encoding="utf-8"?>
<svg version="1.1" xmlns:xlink="http://www.w3.org/1999/xlink" width="14px" height="14px" viewBox="180 47.5  14 14" xmlns="http://www.w3.org/2000/svg">
  <path d="M 180.5 50.5  A 2.5 2.5 0 0 1 183 48 L 191 48  A 2.5 2.5 0 0 1 193.5 50.5 L 193.5 58.5  A 2.5 2.5 0 0 1 191 61 L 183 61  A 2.5 2.5 0 0 1 180.5 58.5 L 180.5 50.5  Z " fill-rule="nonzero" fill="#f0f0f0" stroke="none" />
  <path d="M 180.5 50.5  A 2.5 2.5 0 0 1 183 48 L 191 48  A 2.5 2.5 0 0 1 193.5 50.5 L 193.5 58.5  A 2.5 2.5 0 0 1 191 61 L 183 61  A 2.5 2.5 0 0 1 180.5 58.5 L 180.5 50.5  Z " stroke-width="1" stroke="#797979" fill="none" />
</svg>