<?xml version="1.0" encoding="utf-8"?>
<svg version="1.1" xmlns:xlink="http://www.w3.org/1999/xlink" width="18px" height="12px" xmlns="http://www.w3.org/2000/svg">
  <g transform="matrix(1 0 0 1 0 -2 )">
    <path d="M 17.7618892733564 6.79464130434783  C 18.0378685132404 6.30428898717692  18.0378685132404 5.69571101282309  17.7618892733564 5.20535869565217  C 16.005955017301 2.08529347826087  12.731107266436 0  9 0  C 5.26733564013841 0  1.99320415224913 2.08676086956522  0.238110726643599 5.20535869565217  C -0.0378674003094165 5.69572300878689  -0.037867400309417 6.30430959990876  0.238110726643599 6.79467391304348  C 1.99404498269896 9.91470652173913  5.26889273356401 12  9 12  C 12.7326643598616 12  16.0067958477509 9.91323913043478  17.7618892733564 6.79464130434783  Z M 13.2352941176471 6  C 13.2352941176471 8.4509347826087  11.3410588235294 10.4347826086957  9 10.4347826086957  C 6.65931487889273 10.4347826086957  4.76470588235294 8.45129347826087  4.76470588235294 6  C 4.76470588235294 3.5490652173913  6.65894117647059 1.56521739130435  9 1.56521739130435  C 11.3406851211073 1.56521739130435  13.2352941176471 3.54867391304348  13.2352941176471 6  Z M 9 2.60869565217391  C 10.7887266435986 2.60869565217391  12.2387543252595 4.12702173913044  12.2387543252595 6  C 12.2387543252595 7.87297826086956  10.7887266435986 9.39130434782609  9 9.39130434782609  C 7.21127335640138 9.39130434782609  5.76124567474048 7.87297826086956  5.76124567474048 6  C 5.76124567474048 5.4225652173913  5.89923529411765 4.87894565217391  6.14229757785467 4.40305434782609  L 6.14226643598616 4.40409782608696  C 6.14226643598616 5.17532608695652  6.73934948096886 5.8005  7.47588581314879 5.8005  C 8.21242214532872 5.8005  8.80950519031142 5.17529347826087  8.80950519031142 4.40409782608696  C 8.80950519031142 3.63286956521739  8.21242214532872 3.00766304347826  7.47588581314879 3.00766304347826  L 7.4748892733564 3.00769565217391  C 7.92937370242215 2.7531847826087  8.44853979238754 2.60869565217391  9 2.60869565217391  Z " fill-rule="nonzero" fill="#333333" stroke="none" transform="matrix(1 0 0 1 0 2 )" />
  </g>
</svg>