<?xml version="1.0" encoding="utf-8"?>
<svg version="1.1" xmlns:xlink="http://www.w3.org/1999/xlink" width="13px" height="13px" xmlns="http://www.w3.org/2000/svg">
  <g transform="matrix(1 0 0 1 -860 -14 )">
    <path d="M 7.15 11.9166666666667  C 7.15 12.272  6.85533333333333 12.5666666666667  6.5 12.5666666666667  C 6.14466666666667 12.5666666666667  5.85 12.272  5.85 11.9166666666667  L 5.85 7.15  L 1.08333333333333 7.15  C 0.728 7.15  0.433333333333333 6.85533333333333  0.433333333333333 6.5  C 0.433333333333333 6.14466666666667  0.728 5.85  1.08333333333333 5.85  L 5.85 5.85  L 5.85 1.08333333333333  C 5.85 0.728  6.14466666666667 0.433333333333333  6.5 0.433333333333333  C 6.85533333333333 0.433333333333333  7.15 0.728  7.15 1.08333333333333  L 7.15 5.85  L 11.9166666666667 5.85  C 12.272 5.85  12.5666666666667 6.14466666666667  12.5666666666667 6.5  C 12.5666666666667 6.85533333333333  12.272 7.15  11.9166666666667 7.15  L 7.15 7.15  L 7.15 11.9166666666667  Z " fill-rule="nonzero" fill="#ffffff" stroke="none" transform="matrix(1 0 0 1 860 14 )" />
  </g>
</svg>