<?xml version="1.0" encoding="utf-8"?>
<svg version="1.1" xmlns:xlink="http://www.w3.org/1999/xlink" width="48px" height="48px" xmlns="http://www.w3.org/2000/svg">
  <g>
    <path d="M 35 32.1875  C 35.5416666666667 32.1875  36.0104166666667 31.9895833333333  36.40625 31.59375  L 39.59375 28.40625  C 39.9895833333333 28.0104166666667  40.1875 27.5416666666667  40.1875 27  C 40.1875 26.4583333333333  39.9895833333333 25.9895833333333  39.59375 25.59375  L 25.40625 11.40625  C 25.0104166666667 11.0104166666667  24.5416666666667 10.8125  24 10.8125  C 23.4583333333333 10.8125  22.9895833333333 11.0104166666667  22.59375 11.40625  L 8.40625 25.59375  C 8.01041666666667 25.9895833333333  7.8125 26.4583333333333  7.8125 27  C 7.8125 27.5416666666667  8.01041666666667 28.0104166666667  8.40625 28.40625  L 11.59375 31.59375  C 11.9895833333333 31.9895833333333  12.4583333333333 32.1875  13 32.1875  C 13.5416666666667 32.1875  14.0104166666667 31.9895833333333  14.40625 31.59375  L 24 22  L 33.59375 31.59375  C 33.9895833333333 31.9895833333333  34.4583333333333 32.1875  35 32.1875  Z M 44.78125 11.953125  C 46.9270833333333 15.6302083333333  48 19.6458333333333  48 24  C 48 28.3541666666667  46.9270833333333 32.3697916666667  44.78125 36.046875  C 42.6354166666667 39.7239583333333  39.7239583333333 42.6354166666667  36.046875 44.78125  C 32.3697916666667 46.9270833333333  28.3541666666667 48  24 48  C 19.6458333333333 48  15.6302083333333 46.9270833333333  11.953125 44.78125  C 8.27604166666667 42.6354166666667  5.36458333333333 39.7239583333333  3.21875 36.046875  C 1.07291666666667 32.3697916666667  0 28.3541666666667  0 24  C 0 19.6458333333333  1.07291666666667 15.6302083333333  3.21875 11.953125  C 5.36458333333333 8.27604166666667  8.27604166666667 5.36458333333333  11.953125 3.21875  C 15.6302083333333 1.07291666666666  19.6458333333333 0  24 0  C 28.3541666666667 0  32.3697916666667 1.07291666666666  36.046875 3.21875  C 39.7239583333333 5.36458333333333  42.6354166666667 8.27604166666667  44.78125 11.953125  Z " fill-rule="nonzero" fill="#555555" stroke="none" />
  </g>
</svg>