<?xml version="1.0" encoding="utf-8"?>
<svg version="1.1" xmlns:xlink="http://www.w3.org/1999/xlink" width="517px" height="38px" xmlns="http://www.w3.org/2000/svg">
  <g transform="matrix(1 0 0 1 -15 -104 )">
    <path d="M 518.012739051014 104.5  C 518.012739051014 104.5  520.356962491974 104.586151345026  520.356962491974 104.586151345026  C 520.356962491974 104.586151345026  531.487079118578 123  531.487079118578 123  C 531.487079118578 123  520.356962491974 141.413848654974  520.356962491974 141.413848654974  C 520.356962491974 141.413848654974  518.012739051014 141.5  518.012739051014 141.5  C 518.012739051014 141.5  15.5 141.5  15.5 141.5  C 15.5 141.5  15.5 104.5  15.5 104.5  C 15.5 104.5  518.012739051014 104.5  518.012739051014 104.5  Z " fill-rule="nonzero" fill="#1e5df8" stroke="none" />
    <path d="M 518.012739051014 104.5  C 518.012739051014 104.5  520.356962491974 104.586151345026  520.356962491974 104.586151345026  C 520.356962491974 104.586151345026  531.487079118578 123  531.487079118578 123  C 531.487079118578 123  520.356962491974 141.413848654974  520.356962491974 141.413848654974  C 520.356962491974 141.413848654974  518.012739051014 141.5  518.012739051014 141.5  C 518.012739051014 141.5  15.5 141.5  15.5 141.5  C 15.5 141.5  15.5 104.5  15.5 104.5  C 15.5 104.5  518.012739051014 104.5  518.012739051014 104.5  Z " stroke-width="1" stroke="#aaaaaa" fill="none" />
  </g>
</svg>