<?xml version="1.0" encoding="utf-8"?>
<svg version="1.1" xmlns:xlink="http://www.w3.org/1999/xlink" width="422px" height="80px" xmlns="http://www.w3.org/2000/svg">
  <g transform="matrix(1 0 0 1 -35 -91 )">
    <path d="M 35 157.81478451494  C 35 157.81478451494  35 96  35 96  C 35 93.238576250846  37.238576250846 91  40 91  C 40 91  452 91  452 91  C 454.761423749154 91  457 93.238576250846  457 96  C 457 96  457 157.81478451494  457 157.81478451494  C 457 160.576208264094  454.761423749154 162.81478451494  452 162.81478451494  C 452 162.81478451494  133.117062845978 162.81478451494  133.117062845978 162.81478451494  C 133.117062845978 162.81478451494  123.46059915337 170.180722891566  123.46059915337 170.180722891566  C 123.46059915337 170.180722891566  113.117062845978 162.81478451494  113.117062845978 162.81478451494  C 113.117062845978 162.81478451494  40 162.81478451494  40 162.81478451494  C 37.238576250846 162.81478451494  35 160.576208264094  35 157.81478451494  Z " fill-rule="nonzero" fill="#616161" stroke="none" fill-opacity="0.898039215686275" />
  </g>
</svg>