<?xml version="1.0" encoding="utf-8"?>
<svg version="1.1" xmlns:xlink="http://www.w3.org/1999/xlink" width="14px" height="14px" xmlns="http://www.w3.org/2000/svg">
  <g transform="matrix(1 0 0 1 -116 -174 )">
    <path d="M 14 7  C 14 3.134375  10.865625 0  7 0  C 3.134375 0  0 3.134375  0 7  C 0 10.865625  3.134375 14  7 14  C 10.865625 14  14 10.865625  14 7  Z M 12.8125 7  C 12.8125 10.209375  10.209375 12.8125  7 12.8125  C 3.790625 12.8125  1.1875 10.209375  1.1875 7  C 1.1875 3.790625  3.790625 1.1875  7 1.1875  C 10.209375 1.1875  12.8125 3.790625  12.8125 7  Z " fill-rule="nonzero" fill="#333333" stroke="none" transform="matrix(1 0 0 1 116 174 )" />
  </g>
</svg>