<?xml version="1.0" encoding="utf-8"?>
<svg version="1.1" xmlns:xlink="http://www.w3.org/1999/xlink" width="19px" height="19px" xmlns="http://www.w3.org/2000/svg">
  <g transform="matrix(1 0 0 1 -19 0 )">
    <path d="M 28.5 0  C 33.82 0  38 4.18  38 9.5  C 38 14.82  33.82 19  28.5 19  C 23.18 19  19 14.82  19 9.5  C 19 4.18  23.18 0  28.5 0  Z " fill-rule="nonzero" fill="#ffffff" stroke="none" />
    <path d="M 28.5 0.5  C 33.54 0.5  37.5 4.46  37.5 9.5  C 37.5 14.54  33.54 18.5  28.5 18.5  C 23.46 18.5  19.5 14.54  19.5 9.5  C 19.5 4.46  23.46 0.5  28.5 0.5  Z " stroke-width="1" stroke="#1e5df8" fill="none" />
  </g>
</svg>