<?xml version="1.0" encoding="utf-8"?>
<svg version="1.1" xmlns:xlink="http://www.w3.org/1999/xlink" width="24px" height="24px" xmlns="http://www.w3.org/2000/svg">
  <g transform="matrix(1 0 0 1 -1406 -8 )">
    <path d="M 0.479999999999998 12  C 0.479999999999998 5.6384  5.6384 0.479999999999998  12 0.48  C 18.3616 0.48  23.52 5.6384  23.52 12  C 23.52 18.3616  18.3616 23.52  12 23.52  C 5.6384 23.52  0.479999999999998 18.3616  0.479999999999998 12  Z M 16.096 16.096  C 16.4672 15.7248  16.4672 15.1104  16.096 14.7392  L 13.3568 12  L 16.096 9.248  C 16.4672 8.8768  16.4672 8.2624  16.096 7.8912  C 15.7248 7.52  15.1104 7.52  14.7392 7.8912  L 12 10.6304  L 9.248 7.8912  C 8.8768 7.52  8.2624 7.52  7.8912 7.8912  C 7.52 8.2624  7.52 8.8768  7.8912 9.248  L 10.6432 12  L 7.8912 14.7392  C 7.52 15.1104  7.52 15.7248  7.8912 16.096  C 8.2624 16.4672  8.8768 16.4672  9.248 16.096  L 12 13.3568  L 14.7392 16.096  C 15.1104 16.4672  15.7248 16.4672  16.096 16.096  Z " fill-rule="nonzero" fill="#333333" stroke="none" transform="matrix(1 0 0 1 1406 8 )" />
  </g>
</svg>