<?xml version="1.0" encoding="utf-8"?>
<svg version="1.1" xmlns:xlink="http://www.w3.org/1999/xlink" width="12px" height="13px" xmlns="http://www.w3.org/2000/svg">
  <g transform="matrix(1 0 0 1 -1010 -633 )">
    <path d="M 11.1428571428571 8.66099476439791  C 11.7142857142857 9.21684118673647  12 9.88328970331588  12 10.6603403141361  C 12 11.3239528795812  11.7742857142857 11.8797993019197  11.3228571428571 12.3278795811518  C 10.8714285714286 12.7759598603839  10.3114285714286 13  9.64285714285714 13  C 8.87142857142857 13  8.2 12.716404886562  7.62857142857143 12.1492146596859  L 0.968571428571429 5.54712041884817  C 0.322857142857143 4.89485165794066  0 4.12630890052356  0 3.24149214659686  C 0 2.33965968586387  0.314285714285714 1.57395287958115  0.942857142857143 0.94437172774869  C 1.57142857142857 0.314790575916231  2.34 0  3.24857142857143 0  C 4.15142857142857 0  4.93142857142857 0.320462478184989  5.58857142857143 0.961387434554974  L 10.7742857142857 6.11714659685864  C 10.8314285714286 6.17386561954625  10.86 6.23625654450262  10.86 6.30431937172775  C 10.86 6.39506980802792  10.7728571428571 6.52694153577662  10.5985714285714 6.69993455497382  C 10.4242857142857 6.87292757417103  10.2914285714286 6.95942408376963  10.2 6.95942408376963  C 10.1257142857143 6.95942408376963  10.06 6.93106457242583  10.0028571428571 6.87434554973822  L 4.80857142857143 1.71007853403141  C 4.35714285714286 1.27334205933682  3.84 1.05497382198953  3.25714285714286 1.05497382198953  C 2.65142857142857 1.05497382198953  2.14 1.26767015706806  1.72285714285714 1.69306282722513  C 1.30571428571429 2.1184554973822  1.09714285714286 2.63176265270506  1.09714285714286 3.23298429319372  C 1.09714285714286 3.82853403141361  1.31428571428571 4.34184118673647  1.74857142857143 4.7729057591623  L 8.4 11.3835078534031  C 8.76 11.7408376963351  9.17428571428572 11.919502617801  9.64285714285714 11.919502617801  C 10.0085714285714 11.919502617801  10.3114285714286 11.8003926701571  10.5514285714286 11.5621727748691  C 10.7914285714286 11.3239528795812  10.9114285714286 11.0233420593368  10.9114285714286 10.6603403141361  C 10.9114285714286 10.1952443280977  10.7314285714286 9.78403141361257  10.3714285714286 9.42670157068063  L 5.39142857142857 4.4836387434555  C 5.24285714285714 4.34751308900524  5.07142857142857 4.27945026178011  4.87714285714286 4.27945026178011  C 4.71142857142857 4.27945026178011  4.57428571428571 4.33333333333333  4.46571428571429 4.44109947643979  C 4.35714285714286 4.54886561954625  4.30285714285714 4.68499127399651  4.30285714285714 4.84947643979058  C 4.30285714285714 5.03097731239092  4.37428571428571 5.19829842931937  4.51714285714286 5.35143979057592  L 8.03142857142857 8.83965968586388  C 8.08857142857143 8.89637870855148  8.11714285714286 8.95876963350785  8.11714285714286 9.02683246073298  C 8.11714285714286 9.11758289703316  8.02857142857143 9.25087260034904  7.85142857142857 9.42670157068063  C 7.67428571428572 9.60253054101221  7.54 9.69044502617801  7.44857142857143 9.69044502617801  C 7.38 9.69044502617801  7.31714285714286 9.6620855148342  7.26 9.6053664921466  L 3.74571428571429 6.11714659685864  C 3.38571428571429 5.77116055846422  3.20571428571429 5.34860383944154  3.20571428571429 4.84947643979058  C 3.20571428571429 4.38438045375218  3.36857142857143 3.9901832460733  3.69428571428571 3.66688481675393  C 4.02 3.34358638743456  4.41714285714286 3.18193717277487  4.88571428571429 3.18193717277487  C 5.38857142857143 3.18193717277487  5.81428571428571 3.36060209424084  6.16285714285714 3.71793193717277  L 11.1428571428571 8.66099476439791  Z " fill-rule="nonzero" fill="#333333" stroke="none" transform="matrix(1 0 0 1 1010 633 )" />
  </g>
</svg>