<?xml version="1.0" encoding="utf-8"?>
<svg version="1.1" xmlns:xlink="http://www.w3.org/1999/xlink" width="14px" height="14px" viewBox="255 47.5  14 14" xmlns="http://www.w3.org/2000/svg">
  <path d="M 255.5 50.5  A 2.5 2.5 0 0 1 258 48 L 266 48  A 2.5 2.5 0 0 1 268.5 50.5 L 268.5 58.5  A 2.5 2.5 0 0 1 266 61 L 258 61  A 2.5 2.5 0 0 1 255.5 58.5 L 255.5 50.5  Z " fill-rule="nonzero" fill="#f0f0f0" stroke="none" />
  <path d="M 255.5 50.5  A 2.5 2.5 0 0 1 258 48 L 266 48  A 2.5 2.5 0 0 1 268.5 50.5 L 268.5 58.5  A 2.5 2.5 0 0 1 266 61 L 258 61  A 2.5 2.5 0 0 1 255.5 58.5 L 255.5 50.5  Z " stroke-width="1" stroke="#797979" fill="none" />
  <path d="M 258 54.5  L 261 57.5  L 266 50.5  " stroke-width="3" stroke="#797979" fill="none" />
</svg>