<?xml version="1.0" encoding="utf-8"?>
<svg version="1.1" xmlns:xlink="http://www.w3.org/1999/xlink" width="14px" height="14px" viewBox="135 170.5  14 14" xmlns="http://www.w3.org/2000/svg">
  <path d="M 142 170.5  C 145.92 170.5  149 173.58  149 177.5  C 149 181.42  145.92 184.5  142 184.5  C 138.08 184.5  135 181.42  135 177.5  C 135 173.58  138.08 170.5  142 170.5  Z " fill-rule="nonzero" fill="#ffffff" stroke="none" />
  <path d="M 142 171  C 145.64 171  148.5 173.86  148.5 177.5  C 148.5 181.14  145.64 184  142 184  C 138.36 184  135.5 181.14  135.5 177.5  C 135.5 173.86  138.36 171  142 171  Z " stroke-width="1" stroke="#797979" fill="none" />
  <path d="M 142 181  C 140.04 181  138.5 179.46  138.5 177.5  C 138.5 175.54  140.04 174  142 174  C 143.96 174  145.5 175.54  145.5 177.5  C 145.5 179.46  143.96 181  142 181  " fill-rule="nonzero" fill="#797979" stroke="none" />
</svg>