<?xml version="1.0" encoding="utf-8"?>
<svg version="1.1" xmlns:xlink="http://www.w3.org/1999/xlink" width="9px" height="5px" xmlns="http://www.w3.org/2000/svg">
  <g transform="matrix(1 0 0 1 -228 -54 )">
    <path d="M 9 3.89130434782609  C 9 3.97665056360709  8.96464019851117 4.04991948470209  8.8939205955335 4.11111111111111  L 7.96712158808933 4.90821256038647  C 7.89640198511166 4.96940418679549  7.81265508684864 5  7.71588089330025 5  C 7.61910669975186 5  7.53535980148884 4.96940418679549  7.46464019851117 4.90821256038647  L 4.5 2.34299516908213  L 1.53535980148883 4.90821256038647  C 1.46464019851117 4.96940418679549  1.38089330024814 5  1.28411910669975 5  C 1.18734491315136 5  1.10359801488834 4.96940418679549  1.03287841191067 4.90821256038647  L 0.106079404466501 4.11111111111111  C 0.0353598014888338 4.04991948470209  0 3.97665056360709  0 3.89130434782609  C 0 3.80595813204509  0.0353598014888338 3.73268921095008  0.106079404466501 3.67149758454106  L 4.24875930521092 0.0917874396135265  C 4.31947890818859 0.0305958132045087  4.40322580645161 0  4.5 0  C 4.59677419354839 0  4.68052109181142 0.0305958132045087  4.75124069478908 0.0917874396135265  L 8.8939205955335 3.67149758454106  C 8.96464019851117 3.73268921095008  9 3.80595813204509  9 3.89130434782609  Z " fill-rule="nonzero" fill="#0854a1" stroke="none" transform="matrix(1 0 0 1 228 54 )" />
  </g>
</svg>