<?xml version="1.0" encoding="utf-8"?>
<svg version="1.1" xmlns:xlink="http://www.w3.org/1999/xlink" width="14px" height="14px" viewBox="37 71  14 14" xmlns="http://www.w3.org/2000/svg">
  <path d="M 37.5 74  A 2.5 2.5 0 0 1 40 71.5 L 48 71.5  A 2.5 2.5 0 0 1 50.5 74 L 50.5 82  A 2.5 2.5 0 0 1 48 84.5 L 40 84.5  A 2.5 2.5 0 0 1 37.5 82 L 37.5 74  Z " fill-rule="nonzero" fill="#ffffff" stroke="none" />
  <path d="M 37.5 74  A 2.5 2.5 0 0 1 40 71.5 L 48 71.5  A 2.5 2.5 0 0 1 50.5 74 L 50.5 82  A 2.5 2.5 0 0 1 48 84.5 L 40 84.5  A 2.5 2.5 0 0 1 37.5 82 L 37.5 74  Z " stroke-width="1" stroke="#797979" fill="none" />
  <path d="M 40 78  L 43 81  L 48 74  " stroke-width="3" stroke="#797979" fill="none" />
</svg>