<?xml version="1.0" encoding="utf-8"?>
<svg version="1.1" xmlns:xlink="http://www.w3.org/1999/xlink" width="14px" height="14px" viewBox="37 441  14 14" xmlns="http://www.w3.org/2000/svg">
  <path d="M 37.5 444  A 2.5 2.5 0 0 1 40 441.5 L 48 441.5  A 2.5 2.5 0 0 1 50.5 444 L 50.5 452  A 2.5 2.5 0 0 1 48 454.5 L 40 454.5  A 2.5 2.5 0 0 1 37.5 452 L 37.5 444  Z " fill-rule="nonzero" fill="#f0f0f0" stroke="none" />
  <path d="M 37.5 444  A 2.5 2.5 0 0 1 40 441.5 L 48 441.5  A 2.5 2.5 0 0 1 50.5 444 L 50.5 452  A 2.5 2.5 0 0 1 48 454.5 L 40 454.5  A 2.5 2.5 0 0 1 37.5 452 L 37.5 444  Z " stroke-width="1" stroke="#797979" fill="none" />
</svg>