<?xml version="1.0" encoding="utf-8"?>
<svg version="1.1" xmlns:xlink="http://www.w3.org/1999/xlink" width="14px" height="14px" viewBox="37 1221  14 14" xmlns="http://www.w3.org/2000/svg">
  <path d="M 37.5 1224  A 2.5 2.5 0 0 1 40 1221.5 L 48 1221.5  A 2.5 2.5 0 0 1 50.5 1224 L 50.5 1232  A 2.5 2.5 0 0 1 48 1234.5 L 40 1234.5  A 2.5 2.5 0 0 1 37.5 1232 L 37.5 1224  Z " fill-rule="nonzero" fill="#ffffff" stroke="none" />
  <path d="M 37.5 1224  A 2.5 2.5 0 0 1 40 1221.5 L 48 1221.5  A 2.5 2.5 0 0 1 50.5 1224 L 50.5 1232  A 2.5 2.5 0 0 1 48 1234.5 L 40 1234.5  A 2.5 2.5 0 0 1 37.5 1232 L 37.5 1224  Z " stroke-width="1" stroke="#797979" fill="none" />
</svg>