<?xml version="1.0" encoding="utf-8"?>
<svg version="1.1" xmlns:xlink="http://www.w3.org/1999/xlink" width="14px" height="14px" viewBox="37 971  14 14" xmlns="http://www.w3.org/2000/svg">
  <path d="M 44 971  C 47.92 971  51 974.08  51 978  C 51 981.92  47.92 985  44 985  C 40.08 985  37 981.92  37 978  C 37 974.08  40.08 971  44 971  Z " fill-rule="nonzero" fill="#ffffff" stroke="none" />
  <path d="M 44 971.5  C 47.64 971.5  50.5 974.36  50.5 978  C 50.5 981.64  47.64 984.5  44 984.5  C 40.36 984.5  37.5 981.64  37.5 978  C 37.5 974.36  40.36 971.5  44 971.5  Z " stroke-width="1" stroke="#797979" fill="none" />
  <path d="M 44 981.5  C 42.04 981.5  40.5 979.96  40.5 978  C 40.5 976.04  42.04 974.5  44 974.5  C 45.96 974.5  47.5 976.04  47.5 978  C 47.5 979.96  45.96 981.5  44 981.5  " fill-rule="nonzero" fill="#797979" stroke="none" />
</svg>