<?xml version="1.0" encoding="utf-8"?>
<svg version="1.1" xmlns:xlink="http://www.w3.org/1999/xlink" width="14px" height="14px" xmlns="http://www.w3.org/2000/svg">
  <g transform="matrix(1 0 0 1 -873 -111 )">
    <path d="M 8.96430769230769 5.94892307692308  C 8.83507692307692 6.07815384615385  8.67138461538461 6.13846153846154  8.50769230769231 6.13846153846154  C 8.14584615384615 6.13846153846154  7.86153846153846 5.85415384615385  7.86153846153846 5.48369230769231  C 7.86153846153846 5.32861538461539  7.92184615384615 5.16492307692308  8.05107692307692 5.03569230769231  L 11.6867692307692 1.4  L 9.36061538461538 1.4  C 8.99876923076923 1.4  8.72307692307692 1.11569230769231  8.72307692307692 0.745230769230769  C 8.72307692307692 0.374769230769231  8.99876923076923 0.107692307692308  9.36061538461538 0.107692307692308  L 13.2461538461538 0.107692307692308  C 13.5993846153846 0.107692307692308  13.8923076923077 0.374769230769231  13.8923076923077 0.753846153846154  L 13.8923076923077 4.648  C 13.8923076923077 4.99261538461539  13.5993846153846 5.27692307692308  13.272 5.27692307692308  C 12.8929230769231 5.27692307692308  12.6 5.00984615384615  12.6 4.648  L 12.6 2.31323076923077  L 8.96430769230769 5.94892307692308  Z M 4.63938461538462 13.8923076923077  L 0.753846153846154 13.8923076923077  C 0.400615384615385 13.8923076923077  0.107692307692308 13.6252307692308  0.107692307692308 13.2461538461538  L 0.107692307692308 9.36061538461538  C 0.107692307692308 9.016  0.400615384615385 8.72307692307692  0.728 8.72307692307692  C 1.10707692307692 8.72307692307692  1.4 8.99015384615385  1.4 9.352  L 1.4 11.6867692307692  L 5.03569230769231 8.05107692307692  C 5.16492307692308 7.92184615384616  5.32861538461539 7.86153846153846  5.49230769230769 7.86153846153846  C 5.85415384615385 7.86153846153846  6.13846153846154 8.14584615384615  6.13846153846154 8.5163076923077  C 6.13846153846154 8.67138461538462  6.07815384615385 8.83507692307692  5.94892307692308 8.9643076923077  L 2.31323076923077 12.6  L 4.63938461538462 12.6  C 5.00123076923077 12.6  5.27692307692308 12.8843076923077  5.27692307692308 13.2547692307692  C 5.27692307692308 13.6252307692308  5.00123076923077 13.8923076923077  4.63938461538462 13.8923076923077  Z " fill-rule="nonzero" fill="#000000" stroke="none" transform="matrix(1 0 0 1 873 111 )" />
  </g>
</svg>