<?xml version="1.0" encoding="utf-8"?>
<svg version="1.1" xmlns:xlink="http://www.w3.org/1999/xlink" width="9px" height="10px" xmlns="http://www.w3.org/2000/svg">
  <g transform="matrix(1 0 0 1 -1121 -161 )">
    <path d="M 6.63157894736842 0.909090909090909  L 6.63157894736842 0  L 0.947368421052632 0  C 0.423947368421053 0  0 0.406818181818182  0 0.909090909090909  L 0 7.27272727272727  L 0.947368421052632 7.27272727272727  L 0.947368421052632 0.909090909090909  L 6.63157894736842 0.909090909090909  Z M 9 2.72727272727273  C 9 2.225  8.57605263157895 1.81818181818182  8.05263157894737 1.81818181818182  L 2.84210526315789 1.81818181818182  C 2.31868421052632 1.81818181818182  1.89473684210526 2.225  1.89473684210526 2.72727272727273  L 1.89473684210526 9.09090909090909  C 1.89473684210526 9.59318181818182  2.31868421052632 10  2.84210526315789 10  L 8.05263157894737 10  C 8.57605263157895 10  9 9.59318181818182  9 9.09090909090909  L 9 2.72727272727273  Z M 8.05263157894737 2.72727272727273  L 8.05263157894737 9.09090909090909  L 2.84210526315789 9.09090909090909  L 2.84210526315789 2.72727272727273  L 8.05263157894737 2.72727272727273  Z " fill-rule="nonzero" fill="#555555" stroke="none" transform="matrix(1 0 0 1 1121 161 )" />
  </g>
</svg>