<?xml version="1.0" encoding="utf-8"?>
<svg version="1.1" xmlns:xlink="http://www.w3.org/1999/xlink" width="14px" height="14px" viewBox="900 101.5  14 14" xmlns="http://www.w3.org/2000/svg">
  <path d="M 900.5 104.5  A 2.5 2.5 0 0 1 903 102 L 911 102  A 2.5 2.5 0 0 1 913.5 104.5 L 913.5 112.5  A 2.5 2.5 0 0 1 911 115 L 903 115  A 2.5 2.5 0 0 1 900.5 112.5 L 900.5 104.5  Z " fill-rule="nonzero" fill="#ffffff" stroke="none" />
  <path d="M 900.5 104.5  A 2.5 2.5 0 0 1 903 102 L 911 102  A 2.5 2.5 0 0 1 913.5 104.5 L 913.5 112.5  A 2.5 2.5 0 0 1 911 115 L 903 115  A 2.5 2.5 0 0 1 900.5 112.5 L 900.5 104.5  Z " stroke-width="1" stroke="#d7d7d7" fill="none" />
  <path d="M 903 108.5  L 906 111.5  L 911 104.5  " stroke-width="3" stroke="#d7d7d7" fill="none" />
</svg>