<?xml version="1.0" encoding="utf-8"?>
<svg version="1.1" xmlns:xlink="http://www.w3.org/1999/xlink" width="14px" height="14px" viewBox="7 3  14 14" xmlns="http://www.w3.org/2000/svg">
  <path d="M 7.5 6  A 2.5 2.5 0 0 1 10 3.5 L 18 3.5  A 2.5 2.5 0 0 1 20.5 6 L 20.5 14  A 2.5 2.5 0 0 1 18 16.5 L 10 16.5  A 2.5 2.5 0 0 1 7.5 14 L 7.5 6  Z " fill-rule="nonzero" fill="#ffffff" stroke="none" />
  <path d="M 7.5 6  A 2.5 2.5 0 0 1 10 3.5 L 18 3.5  A 2.5 2.5 0 0 1 20.5 6 L 20.5 14  A 2.5 2.5 0 0 1 18 16.5 L 10 16.5  A 2.5 2.5 0 0 1 7.5 14 L 7.5 6  Z " stroke-width="1" stroke="#797979" fill="none" />
  <path d="M 10 10  L 13 13  L 18 6  " stroke-width="3" stroke="#797979" fill="none" />
</svg>