<?xml version="1.0" encoding="utf-8"?>
<svg version="1.1" xmlns:xlink="http://www.w3.org/1999/xlink" width="14px" height="14px" viewBox="8 9  14 14" xmlns="http://www.w3.org/2000/svg">
  <path d="M 8.5 12  A 2.5 2.5 0 0 1 11 9.5 L 19 9.5  A 2.5 2.5 0 0 1 21.5 12 L 21.5 20  A 2.5 2.5 0 0 1 19 22.5 L 11 22.5  A 2.5 2.5 0 0 1 8.5 20 L 8.5 12  Z " fill-rule="nonzero" fill="#ffffff" stroke="none" />
  <path d="M 8.5 12  A 2.5 2.5 0 0 1 11 9.5 L 19 9.5  A 2.5 2.5 0 0 1 21.5 12 L 21.5 20  A 2.5 2.5 0 0 1 19 22.5 L 11 22.5  A 2.5 2.5 0 0 1 8.5 20 L 8.5 12  Z " stroke-width="1" stroke="#797979" fill="none" />
</svg>