<?xml version="1.0" encoding="utf-8"?>
<svg version="1.1" xmlns:xlink="http://www.w3.org/1999/xlink" width="14px" height="14px" viewBox="8 3  14 14" xmlns="http://www.w3.org/2000/svg">
  <path d="M 8.5 6  A 2.5 2.5 0 0 1 11 3.5 L 19 3.5  A 2.5 2.5 0 0 1 21.5 6 L 21.5 14  A 2.5 2.5 0 0 1 19 16.5 L 11 16.5  A 2.5 2.5 0 0 1 8.5 14 L 8.5 6  Z " fill-rule="nonzero" fill="#f0f0f0" stroke="none" />
  <path d="M 8.5 6  A 2.5 2.5 0 0 1 11 3.5 L 19 3.5  A 2.5 2.5 0 0 1 21.5 6 L 21.5 14  A 2.5 2.5 0 0 1 19 16.5 L 11 16.5  A 2.5 2.5 0 0 1 8.5 14 L 8.5 6  Z " stroke-width="1" stroke="#797979" fill="none" />
</svg>