<?xml version="1.0" encoding="utf-8"?>
<svg version="1.1" xmlns:xlink="http://www.w3.org/1999/xlink" width="14px" height="14px" viewBox="8 5  14 14" xmlns="http://www.w3.org/2000/svg">
  <path d="M 8.5 8  A 2.5 2.5 0 0 1 11 5.5 L 19 5.5  A 2.5 2.5 0 0 1 21.5 8 L 21.5 16  A 2.5 2.5 0 0 1 19 18.5 L 11 18.5  A 2.5 2.5 0 0 1 8.5 16 L 8.5 8  Z " fill-rule="nonzero" fill="#ffffff" stroke="none" />
  <path d="M 8.5 8  A 2.5 2.5 0 0 1 11 5.5 L 19 5.5  A 2.5 2.5 0 0 1 21.5 8 L 21.5 16  A 2.5 2.5 0 0 1 19 18.5 L 11 18.5  A 2.5 2.5 0 0 1 8.5 16 L 8.5 8  Z " stroke-width="1" stroke="#797979" fill="none" />
  <path d="M 11 12  L 14 15  L 19 8  " stroke-width="3" stroke="#797979" fill="none" />
</svg>