<?xml version="1.0" encoding="utf-8"?>
<svg version="1.1" xmlns:xlink="http://www.w3.org/1999/xlink" width="12px" height="12px" viewBox="371 163  12 12" xmlns="http://www.w3.org/2000/svg">
  <path d="M 371.5 166  A 2.5 2.5 0 0 1 374 163.5 L 380 163.5  A 2.5 2.5 0 0 1 382.5 166 L 382.5 172  A 2.5 2.5 0 0 1 380 174.5 L 374 174.5  A 2.5 2.5 0 0 1 371.5 172 L 371.5 166  Z " fill-rule="nonzero" fill="#ffffff" stroke="none" />
  <path d="M 371.5 166  A 2.5 2.5 0 0 1 374 163.5 L 380 163.5  A 2.5 2.5 0 0 1 382.5 166 L 382.5 172  A 2.5 2.5 0 0 1 380 174.5 L 374 174.5  A 2.5 2.5 0 0 1 371.5 172 L 371.5 166  Z " stroke-width="1" stroke="#797979" fill="none" />
  <path d="M 373.571428571429 169  L 376.142857142857 171.571428571429  L 380.428571428571 165.571428571429  " stroke-width="2.57142857142857" stroke="#797979" fill="none" />
</svg>