<?xml version="1.0" encoding="utf-8"?>
<svg version="1.1" xmlns:xlink="http://www.w3.org/1999/xlink" width="12px" height="12px" viewBox="451 163  12 12" xmlns="http://www.w3.org/2000/svg">
  <path d="M 451.5 166  A 2.5 2.5 0 0 1 454 163.5 L 460 163.5  A 2.5 2.5 0 0 1 462.5 166 L 462.5 172  A 2.5 2.5 0 0 1 460 174.5 L 454 174.5  A 2.5 2.5 0 0 1 451.5 172 L 451.5 166  Z " fill-rule="nonzero" fill="#f0f0f0" stroke="none" />
  <path d="M 451.5 166  A 2.5 2.5 0 0 1 454 163.5 L 460 163.5  A 2.5 2.5 0 0 1 462.5 166 L 462.5 172  A 2.5 2.5 0 0 1 460 174.5 L 454 174.5  A 2.5 2.5 0 0 1 451.5 172 L 451.5 166  Z " stroke-width="1" stroke="#797979" fill="none" />
  <path d="M 453.571428571429 169  L 456.142857142857 171.571428571429  L 460.428571428571 165.571428571429  " stroke-width="2.57142857142857" stroke="#797979" fill="none" />
</svg>