<?xml version="1.0" encoding="utf-8"?>
<svg version="1.1" xmlns:xlink="http://www.w3.org/1999/xlink" width="12px" height="12px" viewBox="771 163  12 12" xmlns="http://www.w3.org/2000/svg">
  <path d="M 771.5 166  A 2.5 2.5 0 0 1 774 163.5 L 780 163.5  A 2.5 2.5 0 0 1 782.5 166 L 782.5 172  A 2.5 2.5 0 0 1 780 174.5 L 774 174.5  A 2.5 2.5 0 0 1 771.5 172 L 771.5 166  Z " fill-rule="nonzero" fill="#f0f0f0" stroke="none" />
  <path d="M 771.5 166  A 2.5 2.5 0 0 1 774 163.5 L 780 163.5  A 2.5 2.5 0 0 1 782.5 166 L 782.5 172  A 2.5 2.5 0 0 1 780 174.5 L 774 174.5  A 2.5 2.5 0 0 1 771.5 172 L 771.5 166  Z " stroke-width="1" stroke="#797979" fill="none" />
  <path d="M 773.571428571429 169  L 776.142857142857 171.571428571429  L 780.428571428571 165.571428571429  " stroke-width="2.57142857142857" stroke="#797979" fill="none" />
</svg>