<?xml version="1.0" encoding="utf-8"?>
<svg version="1.1" xmlns:xlink="http://www.w3.org/1999/xlink" width="12px" height="12px" viewBox="811 163  12 12" xmlns="http://www.w3.org/2000/svg">
  <path d="M 811.5 166  A 2.5 2.5 0 0 1 814 163.5 L 820 163.5  A 2.5 2.5 0 0 1 822.5 166 L 822.5 172  A 2.5 2.5 0 0 1 820 174.5 L 814 174.5  A 2.5 2.5 0 0 1 811.5 172 L 811.5 166  Z " fill-rule="nonzero" fill="#f0f0f0" stroke="none" />
  <path d="M 811.5 166  A 2.5 2.5 0 0 1 814 163.5 L 820 163.5  A 2.5 2.5 0 0 1 822.5 166 L 822.5 172  A 2.5 2.5 0 0 1 820 174.5 L 814 174.5  A 2.5 2.5 0 0 1 811.5 172 L 811.5 166  Z " stroke-width="1" stroke="#797979" fill="none" />
</svg>