<?xml version="1.0" encoding="utf-8"?>
<svg version="1.1" xmlns:xlink="http://www.w3.org/1999/xlink" width="12px" height="12px" viewBox="531 163  12 12" xmlns="http://www.w3.org/2000/svg">
  <path d="M 531.5 166  A 2.5 2.5 0 0 1 534 163.5 L 540 163.5  A 2.5 2.5 0 0 1 542.5 166 L 542.5 172  A 2.5 2.5 0 0 1 540 174.5 L 534 174.5  A 2.5 2.5 0 0 1 531.5 172 L 531.5 166  Z " fill-rule="nonzero" fill="#ffffff" stroke="none" />
  <path d="M 531.5 166  A 2.5 2.5 0 0 1 534 163.5 L 540 163.5  A 2.5 2.5 0 0 1 542.5 166 L 542.5 172  A 2.5 2.5 0 0 1 540 174.5 L 534 174.5  A 2.5 2.5 0 0 1 531.5 172 L 531.5 166  Z " stroke-width="1" stroke="#797979" fill="none" />
</svg>