<?xml version="1.0" encoding="utf-8"?>
<svg version="1.1" xmlns:xlink="http://www.w3.org/1999/xlink" width="12px" height="12px" viewBox="491 163  12 12" xmlns="http://www.w3.org/2000/svg">
  <path d="M 491.5 166  A 2.5 2.5 0 0 1 494 163.5 L 500 163.5  A 2.5 2.5 0 0 1 502.5 166 L 502.5 172  A 2.5 2.5 0 0 1 500 174.5 L 494 174.5  A 2.5 2.5 0 0 1 491.5 172 L 491.5 166  Z " fill-rule="nonzero" fill="#f0f0f0" stroke="none" />
  <path d="M 491.5 166  A 2.5 2.5 0 0 1 494 163.5 L 500 163.5  A 2.5 2.5 0 0 1 502.5 166 L 502.5 172  A 2.5 2.5 0 0 1 500 174.5 L 494 174.5  A 2.5 2.5 0 0 1 491.5 172 L 491.5 166  Z " stroke-width="1" stroke="#797979" fill="none" />
  <path d="M 493.571428571429 169  L 496.142857142857 171.571428571429  L 500.428571428571 165.571428571429  " stroke-width="2.57142857142857" stroke="#797979" fill="none" />
</svg>