<?xml version="1.0" encoding="utf-8"?>
<svg version="1.1" xmlns:xlink="http://www.w3.org/1999/xlink" width="12px" height="12px" viewBox="1011 163  12 12" xmlns="http://www.w3.org/2000/svg">
  <path d="M 1011.5 166  A 2.5 2.5 0 0 1 1014 163.5 L 1020 163.5  A 2.5 2.5 0 0 1 1022.5 166 L 1022.5 172  A 2.5 2.5 0 0 1 1020 174.5 L 1014 174.5  A 2.5 2.5 0 0 1 1011.5 172 L 1011.5 166  Z " fill-rule="nonzero" fill="#ffffff" stroke="none" />
  <path d="M 1011.5 166  A 2.5 2.5 0 0 1 1014 163.5 L 1020 163.5  A 2.5 2.5 0 0 1 1022.5 166 L 1022.5 172  A 2.5 2.5 0 0 1 1020 174.5 L 1014 174.5  A 2.5 2.5 0 0 1 1011.5 172 L 1011.5 166  Z " stroke-width="1" stroke="#797979" fill="none" />
</svg>