<?xml version="1.0" encoding="utf-8"?>
<svg version="1.1" xmlns:xlink="http://www.w3.org/1999/xlink" width="12px" height="12px" viewBox="411 163  12 12" xmlns="http://www.w3.org/2000/svg">
  <path d="M 411.5 166  A 2.5 2.5 0 0 1 414 163.5 L 420 163.5  A 2.5 2.5 0 0 1 422.5 166 L 422.5 172  A 2.5 2.5 0 0 1 420 174.5 L 414 174.5  A 2.5 2.5 0 0 1 411.5 172 L 411.5 166  Z " fill-rule="nonzero" fill="#ffffff" stroke="none" />
  <path d="M 411.5 166  A 2.5 2.5 0 0 1 414 163.5 L 420 163.5  A 2.5 2.5 0 0 1 422.5 166 L 422.5 172  A 2.5 2.5 0 0 1 420 174.5 L 414 174.5  A 2.5 2.5 0 0 1 411.5 172 L 411.5 166  Z " stroke-width="1" stroke="#797979" fill="none" />
</svg>