<?xml version="1.0" encoding="utf-8"?>
<svg version="1.1" xmlns:xlink="http://www.w3.org/1999/xlink" width="12px" height="12px" viewBox="651 163  12 12" xmlns="http://www.w3.org/2000/svg">
  <path d="M 651.5 166  A 2.5 2.5 0 0 1 654 163.5 L 660 163.5  A 2.5 2.5 0 0 1 662.5 166 L 662.5 172  A 2.5 2.5 0 0 1 660 174.5 L 654 174.5  A 2.5 2.5 0 0 1 651.5 172 L 651.5 166  Z " fill-rule="nonzero" fill="#ffffff" stroke="none" />
  <path d="M 651.5 166  A 2.5 2.5 0 0 1 654 163.5 L 660 163.5  A 2.5 2.5 0 0 1 662.5 166 L 662.5 172  A 2.5 2.5 0 0 1 660 174.5 L 654 174.5  A 2.5 2.5 0 0 1 651.5 172 L 651.5 166  Z " stroke-width="1" stroke="#797979" fill="none" />
  <path d="M 653.571428571429 169  L 656.142857142857 171.571428571429  L 660.428571428571 165.571428571429  " stroke-width="2.57142857142857" stroke="#797979" fill="none" />
</svg>