<?xml version="1.0" encoding="utf-8"?>
<svg version="1.1" xmlns:xlink="http://www.w3.org/1999/xlink" width="12px" height="12px" viewBox="971 163  12 12" xmlns="http://www.w3.org/2000/svg">
  <path d="M 971.5 166  A 2.5 2.5 0 0 1 974 163.5 L 980 163.5  A 2.5 2.5 0 0 1 982.5 166 L 982.5 172  A 2.5 2.5 0 0 1 980 174.5 L 974 174.5  A 2.5 2.5 0 0 1 971.5 172 L 971.5 166  Z " fill-rule="nonzero" fill="#f0f0f0" stroke="none" />
  <path d="M 971.5 166  A 2.5 2.5 0 0 1 974 163.5 L 980 163.5  A 2.5 2.5 0 0 1 982.5 166 L 982.5 172  A 2.5 2.5 0 0 1 980 174.5 L 974 174.5  A 2.5 2.5 0 0 1 971.5 172 L 971.5 166  Z " stroke-width="1" stroke="#797979" fill="none" />
</svg>