<?xml version="1.0" encoding="utf-8"?>
<svg version="1.1" xmlns:xlink="http://www.w3.org/1999/xlink" width="14px" height="14px" viewBox="270 2314.5  14 14" xmlns="http://www.w3.org/2000/svg">
  <path d="M 270.5 2317.5  A 2.5 2.5 0 0 1 273 2315 L 281 2315  A 2.5 2.5 0 0 1 283.5 2317.5 L 283.5 2325.5  A 2.5 2.5 0 0 1 281 2328 L 273 2328  A 2.5 2.5 0 0 1 270.5 2325.5 L 270.5 2317.5  Z " fill-rule="nonzero" fill="#ffffff" stroke="none" />
  <path d="M 270.5 2317.5  A 2.5 2.5 0 0 1 273 2315 L 281 2315  A 2.5 2.5 0 0 1 283.5 2317.5 L 283.5 2325.5  A 2.5 2.5 0 0 1 281 2328 L 273 2328  A 2.5 2.5 0 0 1 270.5 2325.5 L 270.5 2317.5  Z " stroke-width="1" stroke="#797979" fill="none" />
  <path d="M 273 2321.5  L 276 2324.5  L 281 2317.5  " stroke-width="3" stroke="#797979" fill="none" />
</svg>