<?xml version="1.0" encoding="utf-8"?>
<svg version="1.1" xmlns:xlink="http://www.w3.org/1999/xlink" width="14px" height="14px" viewBox="120 2314.5  14 14" xmlns="http://www.w3.org/2000/svg">
  <path d="M 120.5 2317.5  A 2.5 2.5 0 0 1 123 2315 L 131 2315  A 2.5 2.5 0 0 1 133.5 2317.5 L 133.5 2325.5  A 2.5 2.5 0 0 1 131 2328 L 123 2328  A 2.5 2.5 0 0 1 120.5 2325.5 L 120.5 2317.5  Z " fill-rule="nonzero" fill="#f0f0f0" stroke="none" />
  <path d="M 120.5 2317.5  A 2.5 2.5 0 0 1 123 2315 L 131 2315  A 2.5 2.5 0 0 1 133.5 2317.5 L 133.5 2325.5  A 2.5 2.5 0 0 1 131 2328 L 123 2328  A 2.5 2.5 0 0 1 120.5 2325.5 L 120.5 2317.5  Z " stroke-width="1" stroke="#797979" fill="none" />
</svg>