<?xml version="1.0" encoding="utf-8"?>
<svg version="1.1" xmlns:xlink="http://www.w3.org/1999/xlink" width="18px" height="14px" xmlns="http://www.w3.org/2000/svg">
  <g>
    <path d="M 16.5244829440577 7.39876029367106  C 18.4918390186474 5.67217448777265  18.4918390186474 2.87722620174701  16.5244829440577 1.15164073524945  C 14.7747917968693 -0.383880245083156  11.937822478671 -0.383880245083156  10.1881313314826 1.15164073524945  L 9.00039242474892 2.19299405155321  L 7.81160705201809 1.15164073524945  C 6.06191590482973 -0.383880245083156  3.22599305262852 -0.383880245083156  1.47630190544016 1.15164073524945  C -0.492100635146722 2.87822654114789  -0.492100635146722 5.67217448777265  1.47630190544016 7.39876029367106  L 9.00039242474892 14  L 16.5244829440577 7.39876029367106  Z M 16.304725084662 4.27670102356157  C 16.304725084662 5.0639681320448  16.0556661773469 5.80521962808809  15.4089501911254 6.37241206838036  L 9.00039242474892 12.0893517443418  L 2.59078819237534 6.37241206838036  C 1.94511867215092 5.80521962808809  1.69501329883873 5.06496847144567  1.69501329883873 4.27770136296244  C 1.69501329883873 3.49043425447919  1.83942560644159 2.84421500151837  2.48614159266311 2.27802290062699  C 3.05646556109474 1.77685286079204  3.8235251369853 1.50075918615244  4.64500094472626 1.50075918615244  C 5.46543028647006 1.50075918615244  6.23248986236066 1.97692074096568  6.80281383079227 2.47909112020149  L 9.00039242474892 4.30471052678588  L 11.1969245527085 2.47809078080063  C 11.7682949871372 1.97592040156481  12.5343080970306 1.49975884675158  13.3557839047716 1.49975884675158  C 14.1772597125125 1.49975884675158  14.9443192884031 1.77585252139119  15.5146432568347 2.27702256122612  C 16.1613592430563 2.8432146621175  16.304725084662 3.48943391507834  16.304725084662 4.27670102356157  Z " fill-rule="nonzero" fill="#333333" stroke="none" />
  </g>
</svg>