<?xml version="1.0" encoding="utf-8"?>
<svg version="1.1" xmlns:xlink="http://www.w3.org/1999/xlink" width="330px" height="57px" xmlns="http://www.w3.org/2000/svg">
  <g transform="matrix(1 0 0 1 -26 -116 )">
    <path d="M 26 156.482696859462  C 26 156.482696859462  26 121  26 121  C 26 118.238576250846  28.238576250846 116  31 116  C 31 116  351 116  351 116  C 353.761423749154 116  356 118.238576250846  356 121  C 356 121  356 156.482696859462  356 156.482696859462  C 356 159.244120608616  353.761423749154 161.482696859462  351 161.482696859462  C 351 161.482696859462  134.481268011527 161.482696859462  134.481268011527 161.482696859462  C 134.481268011527 161.482696859462  124.913544668588 172.838616714697  124.913544668588 172.838616714697  C 124.913544668588 172.838616714697  114.481268011527 161.482696859462  114.481268011527 161.482696859462  C 114.481268011527 161.482696859462  31 161.482696859462  31 161.482696859462  C 28.238576250846 161.482696859462  26 159.244120608616  26 156.482696859462  Z " fill-rule="nonzero" fill="#616161" stroke="none" fill-opacity="0.898039215686275" />
  </g>
</svg>