<?xml version="1.0" encoding="utf-8"?>
<svg version="1.1" xmlns:xlink="http://www.w3.org/1999/xlink" width="16px" height="16px" viewBox="11 14  16 16" xmlns="http://www.w3.org/2000/svg">
  <path d="M 11.5 17  A 2.5 2.5 0 0 1 14 14.5 L 24 14.5  A 2.5 2.5 0 0 1 26.5 17 L 26.5 27  A 2.5 2.5 0 0 1 24 29.5 L 14 29.5  A 2.5 2.5 0 0 1 11.5 27 L 11.5 17  Z " fill-rule="nonzero" fill="#f0f0f0" stroke="none" />
  <path d="M 11.5 17  A 2.5 2.5 0 0 1 14 14.5 L 24 14.5  A 2.5 2.5 0 0 1 26.5 17 L 26.5 27  A 2.5 2.5 0 0 1 24 29.5 L 14 29.5  A 2.5 2.5 0 0 1 11.5 27 L 11.5 17  Z " stroke-width="1" stroke="#7f7f7f" fill="none" />
  <path d="M 14.4285714285714 22  L 17.8571428571429 25.4285714285714  L 23.5714285714286 17.4285714285714  " stroke-width="3.42857142857143" stroke="#7f7f7f" fill="none" />
</svg>