<?xml version="1.0" encoding="utf-8"?>
<svg version="1.1" xmlns:xlink="http://www.w3.org/1999/xlink" width="2px" height="8px" xmlns="http://www.w3.org/2000/svg">
  <g transform="matrix(1 0 0 1 -122 -177 )">
    <path d="M 0 0.857142857142857  C 0 1.33052978556925  0.447715250169206 1.71428571428571  1 1.71428571428571  C 1.55228474983079 1.71428571428571  2 1.33052978556925  2 0.857142857142857  C 2 0.383755928716463  1.55228474983079 0  1 0  C 0.447715250169206 0  0 0.383755928716463  0 0.857142857142857  Z M 1.66666666666667 3  C 1.66666666666667 2.92142857142857  1.59166666666667 2.85714285714286  1.5 2.85714285714286  L 0.5 2.85714285714286  C 0.408333333333334 2.85714285714286  0.333333333333333 2.92142857142857  0.333333333333333 3  L 0.333333333333333 7.85714285714286  C 0.333333333333333 7.93571428571429  0.408333333333334 8  0.5 8  L 1.5 8  C 1.59166666666667 8  1.66666666666667 7.93571428571429  1.66666666666667 7.85714285714286  L 1.66666666666667 3  Z " fill-rule="nonzero" fill="#333333" stroke="none" transform="matrix(1 0 0 1 122 177 )" />
  </g>
</svg>