<?xml version="1.0" encoding="utf-8"?>
<svg version="1.1" xmlns:xlink="http://www.w3.org/1999/xlink" width="5px" height="10px" xmlns="http://www.w3.org/2000/svg">
  <g transform="matrix(1 0 0 1 -182 -40 )">
    <path d="M 5 5  C 5 5.10752688172043  4.96943371943372 5.20057899090157  4.90830115830116 5.27915632754342  L 1.32722007722008 9.88213399503722  C 1.26608751608752 9.96071133167907  1.19369369369369 10  1.11003861003861 10  C 1.02638352638353 10  0.953989703989704 9.96071133167907  0.892857142857143 9.88213399503722  L 0.0916988416988417 8.85235732009926  C 0.0305662805662806 8.7737799834574  0 8.68072787427626  0 8.57320099255583  C 0 8.4656741108354  0.0305662805662806 8.37262200165426  0.0916988416988417 8.29404466501241  L 2.65444015444015 5  L 0.0916988416988417 1.70595533498759  C 0.0305662805662806 1.62737799834574  0 1.5343258891646  0 1.42679900744417  C 0 1.31927212572374  0.0305662805662806 1.2262200165426  0.0916988416988417 1.14764267990074  L 0.892857142857143 0.117866004962779  C 0.953989703989704 0.0392886683209259  1.02638352638353 0  1.11003861003861 0  C 1.19369369369369 0  1.26608751608752 0.0392886683209259  1.32722007722008 0.117866004962779  L 4.90830115830116 4.72084367245658  C 4.96943371943372 4.79942100909843  5 4.89247311827957  5 5  Z " fill-rule="nonzero" fill="#0854a1" stroke="none" transform="matrix(1 0 0 1 182 40 )" />
  </g>
</svg>