<?xml version="1.0" encoding="utf-8"?>
<svg version="1.1" xmlns:xlink="http://www.w3.org/1999/xlink" width="18px" height="16px" xmlns="http://www.w3.org/2000/svg">
  <g>
    <path d="M 4.77296360485269 8  C 4.77296360485269 10.3355  6.64892547660312 12.2275625  8.97482495667244 12.2495  L 9.99115424610052 13.7039375  C 9.66686644123175 13.7345602518322  9.34132338901867 13.7499313036574  9.0155979202773 13.75  C 5.27802426343154 13.75  1.99750086655113 11.75159375  0.238523396880416 8.76153125  C -0.0379330283862101 8.2915987832459  -0.0379330283862101 7.7083699667541  0.238523396880416 7.2384375  C 0.987941074523397 5.9645  2.01397227036395 4.87046875  3.23407279029463 4.03415625  L 5.01463778162912 6.58225  C 4.85831542461005 7.025625  4.77296360485269 7.50271875  4.77296360485269 8  Z M 17.7926724436742 7.23846875  C 18.0690965596062 7.70839885214743  18.0690965596062 8.29160114785257  17.7926724436742 8.76153125  C 16.8047937608319 10.4408125  15.3360935875217 11.80715625  13.5757746967071 12.682625  L 14.8698093587522 14.53309375  C 15.1068977469671 14.87246875  15.0245407279029 15.33996875  14.6857538994801 15.57746875  L 14.2767764298094 15.86434375  C 13.9379896013865 16.10184375  13.4712998266898 16.01934375  13.2342114384749 15.67996875  L 3.16138648180243 1.466875  C 2.92429809358752 1.1275  3.00665511265165 0.66  3.34544194107452 0.4225  L 3.75441941074523 0.135625  C 4.09320623916811 -0.101875  4.55989601386482 -0.0193750000000001  4.79698440207972 0.32  L 6.38915771230503 2.58928125  C 7.22745233968804 2.368  8.10795493934142 2.25  9.0155979202773 2.25  C 12.753171577123 2.25  16.0336949740035 4.24840625  17.7926724436742 7.23846875  Z M 12.2232790294627 10.78284375  C 12.8681594454073 10.0375  13.2582322357019 9.0648125  13.2582322357019 8  C 13.2582322357019 5.6508125  11.3603396880416 3.75  9.0155979202773 3.75  C 8.45597573656846 3.75  7.9219965337955 3.85853125  7.43306412478336 4.055375  L 8.03511265164645 4.9009375  C 8.8421178509532 4.64559375  9.75225649913345 4.70834375  10.5432582322357 5.1325  C 9.80454072790295 5.1325  9.20651646447141 5.7315625  9.20651646447141 6.470625  C 9.20651646447141 7.2089375  9.80382322357019 7.80875  10.5423223570191 7.80875  C 11.2801039861352 7.80875  11.8781282495667 7.2096875  11.8781282495667 6.470625  C 12.4540658578856 7.5475  12.3869948006932 8.9045  11.6207625649913 9.936875  L 12.2232790294627 10.78284375  Z M 5.78632928942808 7.6865625  C 5.62991334488735 9.32365625  6.70080415944541 10.760125  8.20494280762565 11.14771875  L 5.78632928942808 7.6865625  Z " fill-rule="nonzero" fill="#333333" stroke="none" />
  </g>
</svg>